<svg width="1512" height="965" viewBox="0 0 1512 965" fill="none" xmlns="http://www.w3.org/2000/svg">
<mask id="mask0_96_3" style="mask-type:alpha" maskUnits="userSpaceOnUse" x="0" y="0" width="1512" height="965">
<rect width="1512" height="965" fill="#D9D9D9"/>
</mask>
<g mask="url(#mask0_96_3)">
<path d="M736.821 257.347C588.441 332.091 275.624 584.858 88.6245 556.837C-98.3754 528.817 13.28 -78.5346 13.28 -78.5346L800.344 -66.826C800.344 -66.826 1343.22 -82.5264 1409.99 73.5892C1476.76 229.705 892.514 178.92 736.821 257.347Z" fill="#210440"/>
<path d="M802.647 1526.61C494.807 1550.17 886.067 1672.6 948.074 1692.85C1010.08 1713.1 1153.81 1780.83 1283.86 1769.78C1387.05 1761.01 1517.74 1672.27 1517.74 1672.27C1517.74 1672.27 1730.74 782.372 1408.94 1122.88C1087.15 1463.39 1110.49 1503.05 802.647 1526.61Z" fill="#210440"/>
<path d="M88.3339 847.394C166.042 1067.23 933.311 815.86 803.249 924.961C673.187 1034.06 284.709 1240.83 495.065 1292.13C874.872 1384.77 -50.4387 1799.54 -50.4387 1799.54C-50.4387 1799.54 -7.70872 1574.08 -71.3803 1462.07C-135.052 1350.07 10.6255 627.561 88.3339 847.394Z" fill="#210440"/>
<path d="M1006.4 390.654C1006.73 61.0629 1553.9 334.072 1553.9 334.072C1553.9 334.072 1653.64 553.291 1553.56 678.017C1360.44 918.668 1471.89 521.102 1222.36 678.707C882.122 893.605 871.677 683.545 836.738 555.28C795.716 404.686 1006.28 504.618 1006.4 390.654Z" fill="#210440"/>
<path d="M736.821 257.347C588.441 332.091 275.624 584.858 88.6245 556.837C-98.3754 528.817 13.28 -78.5346 13.28 -78.5346L800.344 -66.826C800.344 -66.826 1343.22 -82.5264 1409.99 73.5892C1476.76 229.705 892.514 178.92 736.821 257.347Z" stroke="#210440" stroke-width="3"/>
<path d="M802.647 1526.61C494.807 1550.17 886.067 1672.6 948.074 1692.85C1010.08 1713.1 1153.81 1780.83 1283.86 1769.78C1387.05 1761.01 1517.74 1672.27 1517.74 1672.27C1517.74 1672.27 1730.74 782.372 1408.94 1122.88C1087.15 1463.39 1110.49 1503.05 802.647 1526.61Z" stroke="#210440" stroke-width="3"/>
<path d="M88.3339 847.394C166.042 1067.23 933.311 815.86 803.249 924.961C673.187 1034.06 284.709 1240.83 495.065 1292.13C874.872 1384.77 -50.4387 1799.54 -50.4387 1799.54C-50.4387 1799.54 -7.70872 1574.08 -71.3803 1462.07C-135.052 1350.07 10.6255 627.561 88.3339 847.394Z" stroke="#210440" stroke-width="3"/>
<path d="M1006.4 390.654C1006.73 61.0629 1553.9 334.072 1553.9 334.072C1553.9 334.072 1653.64 553.291 1553.56 678.017C1360.44 918.668 1471.89 521.102 1222.36 678.707C882.122 893.605 871.677 683.545 836.738 555.28C795.716 404.686 1006.28 504.618 1006.4 390.654Z" stroke="#210440" stroke-width="3"/>
</g>
</svg>
